<svg width="210" height="32" viewBox="0 0 210 32" fill="none" xmlns="http://www.w3.org/2000/svg">
    <path d="M19.9088 25.807C22.0795 26.6477 24.1281 27.4419 25.519 28.4892C25.5493 28.5101 25.5743 28.5378 25.592 28.5702C25.6097 28.6025 25.6196 28.6385 25.6208 28.6754C25.6206 28.7111 25.612 28.7462 25.5959 28.778C25.5797 28.8098 25.5564 28.8374 25.5277 28.8587C23.0945 30.6599 20.2001 31.7341 17.1807 31.9567C14.1612 32.1792 11.1406 31.5409 8.46945 30.1159C5.79833 28.6909 3.58633 26.5376 2.09029 23.906C0.594249 21.2745 -0.124453 18.2727 0.0176335 15.2491C0.15972 12.2256 1.15676 9.30435 2.893 6.82463C4.62923 4.34491 7.03342 2.40843 9.82641 1.24005C12.6194 0.0716617 15.6866 -0.280697 18.6719 0.223886C21.6572 0.728468 24.438 2.06929 26.6916 4.09066C26.728 4.12347 26.7529 4.16703 26.7628 4.21498C26.7726 4.26294 26.7669 4.3128 26.7464 4.35728C26.726 4.40177 26.6918 4.43855 26.649 4.46228C26.6062 4.48602 26.5569 4.49545 26.5083 4.48921C25.2949 4.32771 24.0719 4.24899 22.8477 4.25357C18.1891 4.25357 14.4034 5.29212 11.9039 7.25866C10.8269 8.07925 9.95752 9.14108 9.36572 10.3587C8.77391 11.5764 8.4762 12.9159 8.49651 14.2696C8.49651 17.4376 9.70699 19.9394 12.1978 21.9205C14.3976 23.6688 17.3249 24.8063 19.9088 25.807Z" fill="white"/>
    <path d="M31.938 14.5168C31.9316 14.4554 31.9013 14.399 31.8536 14.3597C28.5132 11.5874 25.8128 10.4557 22.5422 10.4557C20.7963 10.4557 19.4491 10.8077 18.5499 11.5001C18.172 11.7789 17.8657 12.1434 17.6562 12.5637C17.4468 12.984 17.3402 13.448 17.3453 13.9175C17.3453 16.6637 20.7061 17.9175 24.5965 19.3663C26.6014 20.1139 28.6703 20.8877 30.5762 21.9437C30.6112 21.9622 30.6501 21.9721 30.6897 21.9728C30.7147 21.9772 30.7403 21.9772 30.7654 21.9728C30.7962 21.9621 30.8244 21.9449 30.848 21.9223C30.8716 21.8997 30.8901 21.8723 30.9021 21.8419C31.6291 19.9833 32.0012 18.0049 31.9991 16.0092C32.0049 15.5234 31.9817 15.0259 31.938 14.5168Z" fill="white"/>
    <path d="M41.2782 12.6092C41.2782 13.4965 42.3953 14.0405 43.7567 14.6223C46.2731 15.687 48.164 16.6034 48.1669 19.1488C48.1669 21.2783 46.3342 23.1401 43.2854 23.1401C41.6809 23.1434 40.1133 22.6584 38.7909 21.7496C38.6705 21.6823 38.5794 21.5727 38.5353 21.4421C38.4913 21.3114 38.4973 21.1691 38.5524 21.0427L39.1749 19.7685C39.2187 19.6954 39.2773 19.6322 39.3469 19.5831C39.4165 19.534 39.4957 19.5 39.5792 19.4832C39.6628 19.4665 39.7489 19.4675 39.8321 19.486C39.9153 19.5046 39.9937 19.5404 40.0622 19.591L40.102 19.6133C40.8919 20.0546 41.8637 20.5976 43.4629 20.5976C44.6178 20.5976 45.2695 20.0361 45.2695 19.2652C45.2695 18.3547 44.2338 17.7728 42.34 16.9001C40.2455 15.9517 38.5 14.8288 38.5 12.5801C38.5 10.8637 39.8556 8.85357 43.1691 8.85357C44.5672 8.8169 45.9486 9.16402 47.1633 9.8572C47.3229 9.96356 47.4396 10.123 47.4929 10.3072C47.5461 10.4915 47.5324 10.6886 47.4542 10.8637L46.9829 11.8121C46.9432 11.8893 46.8884 11.9576 46.8216 12.0131C46.7548 12.0685 46.6775 12.1098 46.5943 12.1345C46.5112 12.1593 46.4238 12.1669 46.3376 12.157C46.2514 12.1471 46.1681 12.1198 46.0927 12.0768C45.1771 11.6434 44.1791 11.4113 43.1662 11.3961C41.9822 11.3961 41.2782 11.9896 41.2782 12.6092Z" fill="white"/>
    <path fill-rule="evenodd" clip-rule="evenodd" d="M124.478 22.7489C124.35 22.8816 124.176 22.9611 123.992 22.9713L123.038 23.0441C122.099 23.1022 119.844 23.1284 117.651 23.1284C114.963 23.1284 113.083 22.1248 113.083 19.1604C113.083 16.5364 115.12 14.5582 118.797 14.5582C119.769 14.5746 120.734 14.7204 121.668 14.9917C121.729 12.7371 121.173 11.719 119.381 11.719C118.029 11.7609 116.689 11.989 115.399 12.3968C114.965 12.4928 114.689 12.2164 114.596 11.815L114.305 10.6513C114.277 10.5662 114.267 10.4761 114.275 10.3868C114.284 10.2976 114.311 10.211 114.354 10.1328C114.398 10.0545 114.458 9.9862 114.529 9.93223C114.601 9.87827 114.683 9.83982 114.771 9.81933C116.353 9.28573 118.011 9.01451 119.681 9.01642C124.251 9.01642 124.682 11.7626 124.682 15.3146V22.2557C124.678 22.44 124.605 22.6161 124.478 22.7489ZM118.898 20.9796C120.066 21.0228 121.255 21.0667 121.624 20.4579V17.2928C120.804 16.9507 119.921 16.7823 119.032 16.7982C117.363 16.7982 116.097 17.6622 116.097 19.1459C116.097 20.4113 116.839 20.9321 118.323 20.9611C118.511 20.9653 118.704 20.9724 118.898 20.9796Z" fill="white"/>
    <path fill-rule="evenodd" clip-rule="evenodd" d="M146.91 8.05361H146.759C146.749 8.05432 146.739 8.05189 146.731 8.04666C146.723 8.04143 146.716 8.03368 146.712 8.02452V6.47398C146.713 6.46214 146.718 6.45104 146.727 6.44293C146.736 6.43482 146.747 6.43032 146.759 6.43034H147.393C147.46 6.42957 147.526 6.44191 147.587 6.46664C147.649 6.49137 147.705 6.52801 147.753 6.57447C147.8 6.62094 147.838 6.67631 147.864 6.73743C147.89 6.79856 147.904 6.86423 147.905 6.9307C147.899 7.03297 147.863 7.13122 147.802 7.21304C147.74 7.29485 147.656 7.35655 147.559 7.39034L147.879 7.9867L147.881 7.99009L147.883 7.99453C147.885 7.99935 147.886 8.00449 147.886 8.00971C147.886 8.01786 147.884 8.02588 147.879 8.03284C147.875 8.03981 147.869 8.04545 147.862 8.04912C147.854 8.05279 147.846 8.05435 147.838 8.05361H147.664C147.653 8.05429 147.643 8.05154 147.634 8.04578C147.625 8.04002 147.618 8.03155 147.614 8.02161L147.309 7.41361H146.954V8.00998C146.954 8.02155 146.949 8.03265 146.941 8.04083C146.933 8.04902 146.922 8.05361 146.91 8.05361ZM147.376 6.6427H146.96V7.20998H147.376C147.453 7.20998 147.527 7.17933 147.581 7.12477C147.636 7.07022 147.667 6.99622 147.667 6.91907C147.663 6.84446 147.631 6.77415 147.576 6.72271C147.522 6.67126 147.45 6.64261 147.376 6.6427Z" fill="white"/>
    <path fill-rule="evenodd" clip-rule="evenodd" d="M147.309 8.85353C147.629 8.85295 147.941 8.75771 148.207 8.57982C148.473 8.40194 148.68 8.14935 148.802 7.8539C148.925 7.55844 148.957 7.23333 148.895 6.91952C148.834 6.60572 148.68 6.31725 148.455 6.09048C148.229 5.8637 147.941 5.70875 147.628 5.64516C147.314 5.58156 146.989 5.61216 146.693 5.73311C146.397 5.85405 146.143 6.05993 145.964 6.3248C145.785 6.58967 145.688 6.90168 145.685 7.22153C145.684 7.43554 145.725 7.64774 145.806 7.84586C145.887 8.04399 146.006 8.22412 146.157 8.37586C146.308 8.5276 146.487 8.64794 146.685 8.72992C146.883 8.81191 147.095 8.85392 147.309 8.85353ZM147.309 5.85135C147.583 5.84789 147.852 5.92628 148.082 6.07651C148.312 6.22675 148.492 6.44202 148.599 6.69487C148.706 6.94773 148.735 7.2267 148.683 7.4962C148.63 7.76571 148.499 8.01354 148.305 8.20807C148.112 8.4026 147.864 8.53503 147.595 8.58846C147.326 8.64188 147.047 8.61389 146.793 8.50804C146.54 8.40219 146.324 8.2233 146.173 7.99416C146.022 7.76503 145.942 7.49605 145.944 7.22153C145.947 6.86007 146.092 6.51419 146.347 6.25805C146.602 6.0019 146.947 5.8559 147.309 5.85135Z" fill="white"/>
    <path d="M57.252 8.85334C55.8116 8.88088 54.4199 9.37952 53.2898 10.273V4.16388C53.277 3.99637 53.2045 3.83902 53.0854 3.72049C52.9663 3.60196 52.8087 3.53013 52.6411 3.51807H50.9829C50.8122 3.52454 50.6501 3.59528 50.5293 3.71611C50.4085 3.83694 50.3377 3.99895 50.3313 4.1697V22.497C50.3328 22.6691 50.402 22.8336 50.524 22.955C50.646 23.0764 50.8108 23.1449 50.9829 23.1457H52.6091C52.6976 23.1532 52.7868 23.1418 52.8706 23.1122C52.9544 23.0827 53.031 23.0357 53.0954 22.9744C53.1597 22.9131 53.2103 22.8389 53.2438 22.7566C53.2773 22.6743 53.293 22.5858 53.2898 22.497V13.6446C53.6586 13.0282 54.1838 12.5203 54.8122 12.1723C55.4406 11.8244 56.1498 11.6489 56.868 11.6635C58.6425 11.6635 59.5909 12.993 59.5909 15.2417V22.4911C59.5924 22.6635 59.6616 22.8284 59.7834 22.9502C59.9053 23.0721 60.0702 23.1413 60.2425 23.1428H61.8978C62.0688 23.137 62.2312 23.0665 62.3522 22.9455C62.4731 22.8245 62.5436 22.6621 62.5494 22.4911V15.3028C62.5494 11.585 61.1298 8.85334 57.252 8.85334Z" fill="white"/>
    <path fill-rule="evenodd" clip-rule="evenodd" d="M85.3218 8.85346C89.8047 8.85346 91.748 10.7938 91.9138 15.4484C91.9138 15.4484 91.9429 16.3386 91.9313 16.868C91.7538 20.7458 89.6302 23.044 86.4651 23.1429C85.023 23.19 83.5796 23.1122 82.1509 22.9102V27.8265C82.1531 27.9178 82.1358 28.0084 82.1001 28.0924C82.0644 28.1764 82.0111 28.2518 81.9439 28.3135C81.8767 28.3752 81.797 28.4218 81.7103 28.4502C81.6236 28.4786 81.5318 28.4882 81.4411 28.4782H80.068C79.8956 28.4767 79.7308 28.4075 79.6089 28.2856C79.487 28.1638 79.4179 27.9989 79.4164 27.8265V10.4273C79.4164 10.1015 79.7596 9.86292 80.2251 9.66219C81.8794 9.16257 83.5941 8.89049 85.3218 8.85346ZM86.0113 20.7778C88.228 20.644 88.9931 19.4804 89.0542 16.8622H89.0454C89.0518 16.5791 89.0538 16.2634 89.0557 15.9613V15.9602L89.0558 15.9575V15.954C89.0574 15.7031 89.0589 15.4614 89.0629 15.2564C88.9756 11.844 88.0244 11.4455 85.3247 11.4455C84.302 11.4643 83.2844 11.596 82.2905 11.8382C82.2514 11.8418 82.2151 11.86 82.1887 11.889C82.1624 11.9181 82.1478 11.956 82.148 11.9953V20.3531C82.148 20.452 82.2207 20.4986 82.3284 20.5335C82.3284 20.5335 84.9174 20.8389 86.0113 20.7778Z" fill="white"/>
    <path d="M111.504 9.14702H110.261C109.907 9.14702 109.403 9.14702 109.226 9.56302L107.041 17.4321H106.98L103.309 9.17611C103.256 9.06926 103.173 8.98101 103.069 8.92327C102.965 8.86553 102.845 8.84108 102.727 8.8532H102.52C102.406 8.85076 102.293 8.87953 102.193 8.93641C102.094 8.99329 102.012 9.07615 101.956 9.17611L98.2499 17.403H98.1917L95.9429 9.56302C95.9032 9.4406 95.8252 9.33415 95.7205 9.25929C95.6158 9.18442 95.4898 9.14507 95.3611 9.14702H93.5837C93.4885 9.13329 93.3914 9.14778 93.3043 9.1887C93.2173 9.22961 93.1442 9.29514 93.094 9.3772C93.0439 9.45925 93.0189 9.55421 93.0221 9.65032C93.0254 9.74643 93.0568 9.83947 93.1124 9.91793L97.0979 22.7848C97.1382 22.8983 97.2155 22.9949 97.3173 23.0592C97.4191 23.1236 97.5395 23.1519 97.6593 23.1397H97.8368C97.9484 23.1505 98.0606 23.1248 98.1565 23.0666C98.2525 23.0084 98.327 22.9208 98.3691 22.8168L102.57 13.5252H102.628L106.8 22.8168C106.858 22.9186 106.943 23.0025 107.046 23.0594C107.148 23.1163 107.264 23.1441 107.382 23.1397H107.501C107.628 23.1511 107.756 23.1232 107.868 23.0597C107.979 22.9963 108.068 22.9004 108.123 22.7848L112.027 9.91793C112.243 9.50193 111.987 9.14702 111.504 9.14702Z" fill="white"/>
    <path d="M133.328 9.01641C134.628 9.01641 136.257 9.37132 135.812 10.279L135.102 11.4426C135.075 11.523 135.031 11.5966 134.972 11.6581C134.914 11.7196 134.842 11.7676 134.763 11.7986C134.684 11.8297 134.6 11.843 134.515 11.8378C134.43 11.8326 134.348 11.8089 134.273 11.7684C133.906 11.6294 133.521 11.5422 133.13 11.5095H132.754C131.143 11.5095 130.34 11.655 130.005 11.8528C129.936 11.8964 129.808 11.9982 129.808 12.0797V22.4913C129.808 23.0819 129.424 23.14 128.859 23.14H127.489C127.317 23.1385 127.153 23.0697 127.032 22.9484C126.911 22.827 126.842 22.6629 126.84 22.4913V9.96477C126.839 9.90516 126.85 9.84593 126.872 9.7905C126.894 9.73507 126.927 9.68455 126.968 9.64186C127.11 9.47453 127.312 9.36994 127.53 9.35095C127.917 9.3015 128.248 9.2695 128.248 9.2695L128.41 9.25108C128.916 9.19313 129.613 9.11328 130.718 9.06877C131.364 9.03677 132.045 9.01641 132.754 9.01641H133.328Z" fill="white"/>
    <path fill-rule="evenodd" clip-rule="evenodd" d="M142.692 8.85346C138.579 8.85346 135.888 12.1349 135.888 15.9836C135.888 19.8876 138.579 23.14 142.721 23.14C144.999 23.14 146.794 22.3138 147.78 21.4556C148.193 21.1007 148.071 20.8331 147.838 20.5364L147.038 19.2942C146.803 18.9393 146.538 19.0295 146.241 19.236C145.293 19.9948 144.113 20.4055 142.899 20.3996C140.501 20.3996 138.846 18.5058 138.826 16.6702H148.263C148.42 16.6665 148.57 16.6051 148.684 16.4977C148.798 16.3904 148.869 16.2446 148.883 16.0884C148.912 15.8527 148.941 15.3786 148.941 15.14C148.932 11.4862 146.241 8.85346 142.692 8.85346ZM138.963 14.4738C139.169 12.7575 140.472 11.3669 142.631 11.3669C144.644 11.3669 145.944 12.8215 146.005 14.4738H138.963Z" fill="white"/>
    <path fill-rule="evenodd" clip-rule="evenodd" d="M75.7451 10.8141C76.3197 11.4772 76.7594 12.246 77.0396 13.0774C77.3539 14.0195 77.5064 15.008 77.4905 16.001C77.5043 16.9977 77.3479 17.9894 77.028 18.9334C76.7464 19.7607 76.3067 20.5254 75.7334 21.185C75.1827 21.8089 74.5027 22.3052 73.7407 22.6396C71.9603 23.3154 69.9939 23.3154 68.2134 22.6396C67.451 22.306 66.7708 21.8095 66.2207 21.185C65.649 20.5203 65.2123 19.7506 64.9349 18.9188C64.615 17.9748 64.4586 16.9831 64.4724 15.9865C64.4619 14.9977 64.6183 14.0142 64.9349 13.0774C65.2161 12.2458 65.6568 11.477 66.2323 10.8141C66.7825 10.1897 67.4626 9.69318 68.2251 9.35957C70.0055 8.68375 71.9719 8.68375 73.7524 9.35957C74.5144 9.69392 75.1944 10.1903 75.7451 10.8141ZM67.1953 16.1319C67.1953 18.6948 68.4374 20.7865 70.9043 20.7865C73.3742 20.7865 74.6193 18.6978 74.6193 16.1319C74.6193 13.5661 73.3742 11.4774 70.9043 11.4774C68.4345 11.4774 67.1953 13.569 67.1953 16.1319Z" fill="white"/>
    <path fill-rule="evenodd" clip-rule="evenodd" d="M161.948 13.1696C159.061 13.1696 156.941 15.7528 156.941 18.9877C156.941 21.3265 158.328 23.2436 160.274 23.2436C161.786 23.2436 162.845 22.3524 163.128 22.1145C163.171 22.0779 163.196 22.0567 163.202 22.0567L163.288 22.6618C163.308 22.8683 163.394 23.0167 163.604 23.0167H164.092C164.313 23.0341 164.509 22.8781 164.539 22.6618L166.488 8.87294C166.505 8.76108 166.474 8.64707 166.401 8.55937C166.328 8.47167 166.221 8.41856 166.106 8.41331H165.364C165.11 8.4223 164.906 8.62291 164.896 8.87294L164.196 13.7776C163.512 13.3888 162.738 13.1794 161.948 13.1696ZM163.962 15.1477L163.285 20.2182C163.285 20.2182 162.14 21.8676 160.697 21.8676C159.254 21.8676 158.553 20.3636 158.553 18.8219C158.553 16.5266 160.082 14.5427 161.927 14.5427C162.653 14.5329 163.363 14.7442 163.962 15.1477Z" fill="white"/>
    <path fill-rule="evenodd" clip-rule="evenodd" d="M173 13.1638C174.739 13.1638 175.958 14.2081 175.958 15.6685C175.958 17.5274 174.071 18.7986 170.655 18.7986C170.229 18.7986 169.785 18.7783 169.297 18.7375C169.17 20.323 170.06 21.8677 171.716 21.8677C172.669 21.8677 173.303 21.4111 173.852 21.0164L173.858 21.0124C174.091 20.8437 174.284 20.8669 174.473 21.1375L174.751 21.5535C174.878 21.7426 174.94 21.888 174.6 22.1353C173.733 22.811 172.671 23.1981 171.566 23.2407C169.297 23.2407 167.875 21.3004 167.875 18.9848C167.886 15.8576 169.945 13.1638 173 13.1638ZM170.835 17.5476C173.148 17.5476 174.423 16.8814 174.423 15.7527C174.423 15.1069 173.87 14.5222 172.894 14.5222C171.282 14.5222 169.797 15.9767 169.498 17.4836C169.966 17.5272 170.433 17.5476 170.835 17.5476Z" fill="white"/>
    <path d="M177.33 22.2226C177.196 22.0782 177.178 21.8632 177.285 21.699L177.646 21.1579C177.707 21.0604 177.811 20.9963 177.927 20.9844C178.043 20.9724 178.157 21.0139 178.238 21.0968C178.805 21.5649 179.513 21.8359 180.252 21.8677C181.166 21.8677 181.867 21.2626 181.867 20.4684C181.867 19.8023 181.293 19.3048 180.21 18.6328L180.148 18.5943C179.148 17.9805 178.09 17.3305 178.09 15.9827C178.09 14.7725 178.977 13.1638 181.314 13.1638C182.171 13.1351 183.014 13.3845 183.712 13.8736C183.91 14.0509 183.947 14.344 183.798 14.5631L183.588 14.95C183.526 15.0624 183.416 15.1416 183.288 15.1658C183.161 15.19 183.029 15.1567 182.928 15.0751C182.414 14.7183 181.798 14.5282 181.169 14.5311C180.107 14.5311 179.69 15.2002 179.69 15.782C179.69 16.4661 180.336 16.8638 181.072 17.3161L181.089 17.3267C182.364 18.1208 183.487 18.8306 183.487 20.3113C183.487 21.7921 182.343 23.2204 180.071 23.2204C179.068 23.2081 178.1 22.8556 177.33 22.2226Z" fill="white"/>
    <path d="M187.214 9.91152C187.242 9.18916 187.837 8.61303 188.571 8.59663C188.838 8.58848 189.097 8.68914 189.285 8.87479C189.474 9.06044 189.576 9.31456 189.568 9.57698C189.559 10.2904 188.98 10.8701 188.255 10.8919C187.983 10.9046 187.717 10.8069 187.52 10.6216C187.324 10.4362 187.213 10.1795 187.214 9.91152Z" fill="white"/>
    <path d="M185.815 22.5571L187.045 13.83C187.065 13.5767 187.275 13.3786 187.533 13.3704H188.296C188.404 13.3829 188.501 13.4407 188.562 13.5288C188.624 13.6169 188.643 13.7267 188.616 13.83L187.385 22.5571C187.348 22.8106 187.134 23.0028 186.874 23.0167H186.176C186.061 23.0146 185.954 22.9614 185.883 22.872C185.813 22.7827 185.788 22.6669 185.815 22.5571Z" fill="white"/>
    <path fill-rule="evenodd" clip-rule="evenodd" d="M197.959 14.3972C197.446 13.6046 196.547 13.136 195.592 13.1637C193.197 13.1637 190.671 15.4619 190.662 19.3716C190.662 21.7774 192.191 23.2319 193.868 23.2319C194.936 23.2063 195.941 22.728 196.625 21.92H196.731L196.648 22.5861C196.32 25.3206 195.152 26.1759 193.987 26.1759C192.642 26.1759 191.961 25.373 191.588 24.9337C191.566 24.9082 191.546 24.8839 191.526 24.861C191.459 24.7776 191.357 24.729 191.249 24.729C191.142 24.729 191.04 24.7776 190.973 24.861L190.526 25.3003C190.372 25.4457 190.363 25.6849 190.506 25.8414C190.719 26.1323 191.81 27.5868 193.815 27.5868C195.82 27.5868 197.633 26.2748 198.186 22.493L199.437 13.8328C199.482 13.5623 199.352 13.3732 199.142 13.3732H198.615C198.456 13.3603 198.307 13.4547 198.254 13.603L197.959 14.3972ZM197.565 16.0727L197.098 19.2727L197.101 19.2814C196.867 20.157 195.616 21.8675 194.158 21.8733C193.161 21.8733 192.185 20.8494 192.185 19.2232C192.185 16.3229 194.052 14.5484 195.495 14.5484C197.056 14.5484 197.565 16.0727 197.565 16.0727Z" fill="white"/>
    <path d="M202.788 13.8299L201.555 22.5571C201.53 22.6663 201.556 22.7806 201.626 22.869C201.696 22.9573 201.802 23.0104 201.916 23.0138H202.596C202.866 23.0156 203.094 22.8177 203.125 22.5542L204.081 15.9157C204.086 15.9157 204.114 15.8888 204.161 15.8426C204.451 15.5579 205.489 14.5398 206.837 14.5398C208.07 14.5398 208.538 15.4154 208.26 17.2539L207.476 22.5542C207.449 22.6639 207.474 22.7797 207.544 22.8691C207.614 22.9584 207.722 23.0117 207.837 23.0138H208.576C208.828 22.9926 209.032 22.8012 209.064 22.5542L209.848 17.2539C210.2 14.7696 209.552 13.1609 207.186 13.1609C205.629 13.1609 204.514 14.0823 204.212 14.3324C204.164 14.3716 204.137 14.3943 204.131 14.3943L204.024 13.6641C203.983 13.4576 203.897 13.3732 203.708 13.3732H203.282C203.019 13.3698 202.801 13.5717 202.788 13.8299Z" fill="white"/>
</svg>
