<svg width="142" height="141" viewBox="0 0 142 141" fill="none" xmlns="http://www.w3.org/2000/svg">
<g filter="url(#filter0_d_3144_24256)">
<circle cx="73.5" cy="67.5" r="65.5" fill="white"/>
</g>
<path d="M127.562 67.9183C127.563 74.6416 126.313 81.3063 123.874 87.5717C123.834 87.6746 123.772 87.7677 123.693 87.8448C123.613 87.9218 123.519 87.9811 123.415 88.0185C123.33 88.0499 123.241 88.0663 123.151 88.0667C123.02 88.0663 122.891 88.0321 122.778 87.9674C122.43 87.776 122.083 87.5845 121.732 87.4001C117.477 85.1306 113.006 83.2456 108.527 81.5151C107.889 81.2683 107.253 81.0258 106.619 80.7875C105.283 80.2754 103.947 79.7804 102.625 79.2868C99.3628 78.067 96.2153 76.8926 93.3232 75.6741C88.3872 73.5877 84.1986 71.3679 81.4881 68.575C79.4058 66.4276 78.2002 63.9425 78.2002 60.9157C78.2002 58.1016 79.203 55.6477 81.1108 53.7343C81.4505 53.3883 81.814 53.0665 82.1987 52.7712C85.2213 50.4493 89.7446 49.2578 95.648 49.2578C96.8111 49.2578 97.9533 49.3013 99.0748 49.3883C100.791 49.5144 102.497 49.7547 104.181 50.1074C108.618 51.0351 112.899 52.757 117.344 55.4066C120.464 57.2633 123.67 59.5838 127.07 62.4064C127.223 62.5401 127.318 62.7284 127.335 62.9312C127.487 64.6532 127.562 66.3269 127.562 67.9183Z" fill="#FFBCC9"/>
<path d="M123.792 64.5822C123.859 64.3935 123.665 64.4162 123.64 64.3779C123.591 64.7127 123.839 64.5864 123.792 64.5822Z" fill="white"/>
<path d="M123.27 67.8683L123.218 67.7903L123.245 68.3108L123.27 67.8683Z" fill="white"/>
<path d="M122.289 70.8015C122.679 70.6285 122.617 69.7278 122.89 69.2413L122.987 69.1774L122.827 68.8625C122.661 69.5093 122.529 70.3859 122.289 70.8015Z" fill="white"/>
<path d="M121.096 72.119C121.238 72.0666 121.07 72.4878 121.264 71.7729C121.248 71.7926 121.231 71.8111 121.212 71.8283C121.191 71.8907 121.158 71.9758 121.096 72.119Z" fill="white"/>
<path d="M121.215 71.8283C121.318 71.5219 121.046 71.9914 121.215 71.8283V71.8283Z" fill="white"/>
<path d="M120.751 73.2511L120.805 72.8142C120.707 72.8724 120.554 73.2199 120.557 73.0695C120.449 73.4979 120.547 73.4411 120.751 73.2511Z" fill="white"/>
<path d="M120.813 73.711L120.85 73.4883C120.809 73.5138 120.778 73.5691 120.813 73.711Z" fill="white"/>
<path d="M120.929 73.0156L120.849 73.488C120.918 73.4482 121.015 73.478 120.895 73.2738C120.966 73.3433 120.918 73.2241 120.929 73.0156Z" fill="white"/>
<path d="M121.07 72.7841C121.221 72.5841 121.365 72.3075 121.316 72.7486C121.561 71.9656 121.319 72.0082 121.07 72.7841Z" fill="white"/>
<path d="M122.54 71.0584L122.733 70.7832V70.4854C122.73 70.6343 122.442 71.0456 122.54 71.0584Z" fill="white"/>
<path d="M119.602 75.6557C119.651 75.7054 119.82 75.5919 119.909 75.5947L119.962 75.2742C119.86 75.4132 119.699 75.6727 119.602 75.6557Z" fill="white"/>
<path d="M119.909 75.5945L119.828 76.0739C120.005 75.6966 119.987 75.5973 119.909 75.5945Z" fill="white"/>
<path d="M121.101 73.9075L121.162 73.0962L121.049 74.0494L121.101 73.9075Z" fill="white"/>
<path d="M118.883 77.3052L118.852 77.0002L118.87 77.5279L118.883 77.3052Z" fill="white"/>
<path d="M118.416 78.4071C118.384 78.1745 118.109 78.5645 118.124 78.3419C118.032 78.6225 117.984 78.9159 117.982 79.2113C118.059 78.9117 118.208 78.6356 118.416 78.4071V78.4071Z" fill="white"/>
<path d="M117.929 79.6511C117.958 79.5063 117.975 79.3592 117.978 79.2114C117.944 79.3555 117.928 79.5031 117.929 79.6511V79.6511Z" fill="white"/>
<path d="M119.485 76.8027C119.416 76.8224 119.351 76.856 119.296 76.9013C119.24 76.9467 119.194 77.0029 119.161 77.0666L119.407 76.9715C119.431 76.9205 119.456 76.8609 119.485 76.8027Z" fill="white"/>
<path d="M119.412 76.9727C119.326 77.1556 119.27 77.2819 119.239 77.3358C119.255 77.289 119.31 77.1783 119.412 76.9727Z" fill="white"/>
<path d="M119.505 76.7588L119.486 76.803C119.511 76.793 119.519 76.7859 119.505 76.7588Z" fill="white"/>
<path d="M120.483 74.999C120.475 75.2969 120.357 75.8784 120.716 75.4175C120.673 75.1834 120.469 75.4472 120.483 74.999Z" fill="white"/>
<path d="M119.807 76.6385L120.042 76.1917C119.994 76.1818 119.9 76.2371 119.9 76.0896L119.807 76.6385Z" fill="white"/>
<path d="M119.766 76.8897L119.808 76.6387L119.722 76.8046L119.766 76.8897Z" fill="white"/>
<path d="M118.449 78.9432C118.415 79.1859 118.343 79.4218 118.236 79.6425C118.391 79.3973 118.53 79.1419 118.65 78.878C118.614 78.817 118.571 78.661 118.449 78.9432Z" fill="white"/>
<path d="M118.938 77.9934C118.938 78.0091 118.931 78.0276 118.928 78.0419C118.953 78.0219 118.968 78.002 118.938 77.9934Z" fill="white"/>
<path d="M117.081 82.0231L117.13 81.9989L117.105 81.9761L117.081 82.0231Z" fill="white"/>
<path d="M118.701 78.8482C118.798 78.7173 118.848 78.5573 118.843 78.3943C118.788 78.5586 118.726 78.7201 118.655 78.878C118.667 78.9049 118.681 78.9148 118.701 78.8482Z" fill="white"/>
<path d="M117.689 80.3534C117.779 80.2596 117.864 80.1611 117.943 80.0583C117.842 80.1335 117.663 80.2966 117.689 80.3534Z" fill="white"/>
<path d="M118.855 78.087C118.855 78.077 118.855 78.067 118.855 78.0542C118.795 78.1084 118.816 78.1084 118.855 78.087Z" fill="white"/>
<path d="M118.85 78.0864C118.834 78.1882 118.829 78.2913 118.834 78.3942C118.874 78.2789 118.905 78.1609 118.926 78.041C118.903 78.0597 118.877 78.075 118.85 78.0864V78.0864Z" fill="white"/>
<path d="M117.783 83.2752C117.648 83.1632 117.767 82.5816 118.149 82.2185C118.248 81.7235 117.6 81.7618 117.131 81.9987C117.19 82.0455 117.255 82.0781 117.122 82.566C117.287 82.454 117.809 81.671 117.763 82.1178C117.549 82.7519 117.468 82.5774 117.241 82.827C117.556 82.6852 117.136 83.7178 117.481 83.7334L117.647 83.166C117.697 83.1759 117.67 83.4001 117.783 83.2752Z" fill="white"/>
<path d="M117.564 81.1558L117.635 80.9629C117.49 81.1667 117.314 81.3463 117.113 81.4948C117.037 81.838 117.063 81.9288 117.104 81.9756L117.572 81.082L117.564 81.1558Z" fill="white"/>
<path d="M118.03 80.1331C118.129 80.3586 117.989 80.8423 118.302 80.6522C118.549 80.1019 118.342 80.204 118.424 79.8452C118.048 80.7416 118.45 79.5487 118.052 80.1289C118.102 79.9607 118.162 79.7959 118.233 79.6353C118.138 79.7771 118.04 79.9189 117.94 80.0508L117.96 80.0367C118 80.0097 118.018 80.0026 117.986 80.0367C117.987 80.0432 117.987 80.05 117.986 80.0565C118.006 80.0756 118.022 80.0995 118.031 80.126C117.875 80.3629 117.969 80.1445 117.986 80.0565C117.98 80.048 117.974 80.0403 117.966 80.0338L117.64 80.9529C117.792 80.6909 117.923 80.4167 118.03 80.1331Z" fill="white"/>
<path d="M120.886 76.0522C120.859 76.0735 120.847 76.0679 120.833 76.0636C120.829 76.1317 120.835 76.16 120.886 76.0522Z" fill="white"/>
<path d="M120.625 76.3793C120.603 76.2539 120.626 76.1247 120.69 76.0148C120.821 75.8531 120.772 76.0502 120.832 76.0644C120.84 75.9226 120.899 75.5651 120.645 75.9311V76.0048C120.432 76.3424 120.021 76.7141 120.023 76.6403C120.242 76.6034 120.449 76.5138 120.625 76.3793V76.3793Z" fill="white"/>
<path d="M119.38 78.3196L119.126 79.1011L119.445 78.7919L119.349 78.7706C119.577 78.3621 119.425 78.4033 119.38 78.3196Z" fill="white"/>
<path d="M116.958 82.0643L116.827 81.8799L116.868 82.4217L116.958 82.0643Z" fill="white"/>
<path d="M116.505 83.0117L116.37 82.8997L116.336 83.1933L116.505 83.0117Z" fill="white"/>
<path d="M74.7959 64.5874L74.8271 64.3193C74.8096 64.4077 74.7992 64.4974 74.7959 64.5874Z" fill="white"/>
<path d="M74.3955 66.461L74.4735 66.5164C74.4366 66.4242 74.4069 66.383 74.3955 66.461Z" fill="white"/>
<path d="M99.2898 84.1215C99.0316 83.8379 98.7664 83.452 98.7295 83.6464L98.755 83.8605C98.9491 83.9104 99.131 83.9992 99.2898 84.1215V84.1215Z" fill="white"/>
<path d="M82.5635 77.8962C82.5819 77.9303 82.6018 77.9643 82.6216 77.9984L82.9167 77.9615C82.8103 77.9445 82.6883 77.9232 82.5635 77.8962Z" fill="white"/>
<path d="M81.9494 78.4356L81.6104 78.0881C81.7119 78.2146 81.8254 78.331 81.9494 78.4356V78.4356Z" fill="white"/>
<path d="M81.2233 56.8319L81.3864 56.5142C80.9807 56.7553 81.2091 56.7368 81.2233 56.8319Z" fill="white"/>
<path d="M111.77 91.3448C111.713 91.3057 111.666 91.2525 111.636 91.1902C111.613 91.1505 111.587 91.113 111.558 91.0781C111.586 91.1809 111.623 91.281 111.668 91.3774C111.714 91.4512 111.763 91.4497 111.77 91.3448Z" fill="white"/>
<path d="M76.5466 65.7549C76.5466 65.6202 76.5211 65.5549 76.4785 65.5479C76.4785 65.6911 76.497 65.7677 76.5466 65.7549Z" fill="white"/>
<path d="M111.34 90.8952C111.378 90.9491 111.34 90.9364 111.361 90.969C111.411 90.9801 111.459 90.9987 111.503 91.0243C111.526 91.0393 111.547 91.0574 111.565 91.0782C111.554 91.0392 111.54 91.0009 111.524 90.9633C111.483 90.891 111.463 90.874 111.34 90.8952Z" fill="white"/>
<path d="M115.587 55.624C115.608 55.6423 115.629 55.6617 115.648 55.6822C115.666 55.6637 115.635 55.6453 115.587 55.624Z" fill="white"/>
<path d="M122.598 63.0247C122.52 62.9666 122.405 62.8588 122.297 62.7581C122.384 62.8609 122.485 62.9507 122.598 63.0247V63.0247Z" fill="white"/>
<path d="M114.449 86.7036C114.547 86.5022 114.449 86.6625 114.449 86.7036V86.7036Z" fill="white"/>
<path d="M115.622 86.1072C115.617 86.1292 115.618 86.1522 115.625 86.1738C115.632 86.1954 115.644 86.2149 115.661 86.2302C115.646 86.2134 115.635 86.1938 115.629 86.1726C115.622 86.1515 115.62 86.1292 115.622 86.1072Z" fill="white"/>
<path d="M108.812 90.448L108.796 90.4365C108.837 90.5082 108.825 90.4953 108.812 90.448Z" fill="white"/>
<path d="M114.684 86.4514C114.616 86.5215 114.553 86.5959 114.495 86.6741C114.563 86.6039 114.626 86.5295 114.684 86.4514V86.4514Z" fill="white"/>
<path d="M114.582 86.4476L114.693 86.2859C114.68 86.2462 114.652 86.2589 114.582 86.4476Z" fill="white"/>
<path d="M114.303 86.9785C114.36 86.8726 114.424 86.7707 114.496 86.6736C114.463 86.7048 114.446 86.7161 114.446 86.7034L114.303 86.9785Z" fill="white"/>
<path d="M97.0898 53.2431C97.1067 53.2462 97.1233 53.2505 97.1395 53.2559C97.3608 53.1566 97.2615 53.1779 97.0898 53.2431Z" fill="white"/>
<path d="M93.1304 83.6729C93.1396 83.6736 93.149 83.6736 93.1582 83.6729L93.1289 83.6538L93.1304 83.6729Z" fill="white"/>
<path d="M92.3291 83.4979C92.4654 83.458 92.6093 83.4517 92.7486 83.4793C92.8878 83.507 93.0184 83.5678 93.1291 83.6567L93.0865 83.0525L92.3291 83.4979Z" fill="white"/>
<path d="M82.0315 78.3759C82.0146 78.3327 82.0146 78.2847 82.0315 78.2416C81.9509 78.2373 81.9297 78.2713 82.0315 78.3759Z" fill="white"/>
<path d="M81.1904 56.8943L81.216 56.883C81.2199 56.8676 81.2199 56.8515 81.216 56.8362L81.1904 56.8943Z" fill="white"/>
<path d="M105.844 89.5245C105.761 89.4579 105.693 89.3755 105.642 89.282C105.61 89.3217 105.648 89.394 105.844 89.5245Z" fill="white"/>
<path d="M115.462 84.6321L115.283 85.0831C115.347 84.9495 115.437 84.8303 115.548 84.7328C115.504 84.7186 115.395 84.7739 115.462 84.6321Z" fill="white"/>
<path d="M118.524 81.4698C118.534 81.3946 118.588 81.3279 118.595 81.2584L118.5 81.2329C118.374 81.5123 118.342 81.7322 118.524 81.4698Z" fill="white"/>
<path d="M116.288 84.5614C116.461 84.6082 116.55 84.3118 116.68 83.9941C116.67 84.0125 116.663 84.0295 116.651 84.0466C116.48 83.8466 116.383 84.2068 116.288 84.5614Z" fill="white"/>
<path d="M116.708 83.9234C116.748 83.8255 116.796 83.7307 116.85 83.6397C116.78 83.5603 116.772 83.7461 116.708 83.9234Z" fill="white"/>
<path d="M114.214 87.4128C114.332 87.295 114.072 87.2156 114.175 87.1702C114.067 86.9022 113.889 88.2383 114.214 87.4128Z" fill="white"/>
<path d="M116.925 84.5857L116.676 84.5942L116.742 84.8438L116.925 84.5857Z" fill="white"/>
<path d="M115.511 86.8835L115.825 86.4353C115.788 86.4239 115.802 86.353 115.825 86.2708C115.663 86.5629 115.449 86.8651 115.511 86.8835Z" fill="white"/>
<path d="M115.83 86.2703C115.91 86.1461 115.97 86.0102 116.007 85.8674C115.939 85.9974 115.88 86.132 115.83 86.2703V86.2703Z" fill="white"/>
<path d="M116.638 85.2759L116.523 85.3979L116.327 85.7298L116.638 85.2759Z" fill="white"/>
<path d="M112.587 91.8451C112.516 92.0221 112.415 92.1853 112.288 92.3273C112.269 92.4536 112.421 92.4153 112.537 92.2082C112.594 92.0408 112.666 91.8394 112.587 91.8451Z" fill="white"/>
<path d="M113.974 90.6875C113.898 90.7605 113.803 90.8097 113.699 90.8293L113.922 90.9825L113.974 90.6875Z" fill="white"/>
<path d="M113.028 92.3699C113.066 92.5118 112.422 93.377 113.062 92.6536C113.083 92.5288 113.449 91.8394 113.028 92.3699Z" fill="white"/>
<path d="M105.423 88.4293L105.558 88.4988L105.756 88.1045L105.423 88.4293Z" fill="white"/>
<path d="M97.9016 85.9753C98.503 86.3469 98.1626 85.7909 98.6902 86.1625C98.8817 86.1327 98.2647 85.8576 98.4491 85.842C98.0179 85.7753 97.8364 85.632 97.9016 85.9753Z" fill="white"/>
<path d="M98.4492 85.8428C98.5234 85.8555 98.5982 85.864 98.6733 85.8684C98.6 85.8505 98.5247 85.842 98.4492 85.8428V85.8428Z" fill="white"/>
<path d="M123.529 64.3674L123.759 64.7504L123.677 64.444L123.529 64.3674Z" fill="white"/>
<path d="M124.344 64.4583C124.305 64.4685 124.264 64.4747 124.224 64.4767C124.166 64.4823 124.107 64.4823 124.049 64.4767C123.998 64.4767 124.036 64.4767 124.049 64.4767C124.07 64.4841 124.09 64.4936 124.109 64.5051C124.119 64.488 124.072 64.4753 124.124 64.4781C124.198 64.4821 124.272 64.4754 124.344 64.4583V64.4583Z" fill="white"/>
<path d="M74.2979 70.8157L74.3745 70.8356C74.4227 70.7363 74.3957 70.6172 74.3432 70.3774L74.2979 70.8157Z" fill="white"/>
<path d="M74.7304 63.8945L74.6836 64.0051L74.9999 63.8845L74.7304 63.8945Z" fill="white"/>
<path d="M77.7123 58.9197C77.5364 59.08 77.3733 59.3069 77.2031 59.4743C77.5336 59.07 77.9776 59.1097 77.7123 58.9197Z" fill="white"/>
<path d="M93.5357 116.101C93.5691 116.306 93.5852 116.513 93.584 116.72C93.5802 116.793 93.5913 116.865 93.6166 116.934C93.6506 117.002 93.7159 116.954 93.7145 117.042C93.7885 116.705 93.7719 116.354 93.6662 116.026C93.5911 115.818 93.5244 115.755 93.5088 115.779C93.4956 115.887 93.5048 115.997 93.5357 116.101V116.101Z" fill="white"/>
<path d="M86.1509 109.071L86.3353 109.108C85.9098 108.89 85.4843 108.661 85.0488 108.456C85.4204 108.652 85.7836 108.864 86.1509 109.071Z" fill="white"/>
<path d="M78.4463 104.38C79.0335 105.066 81.3044 105.94 82.6249 106.869L82.815 107.066L83.5639 107.233C81.8774 106.232 79.5966 105.126 78.4463 104.38Z" fill="white"/>
<path d="M74.6091 101.455C74.8063 101.704 73.6616 101.038 75.558 102.035L75.3977 101.909C75.229 101.817 74.9978 101.686 74.6091 101.455Z" fill="white"/>
<path d="M75.3997 101.909C76.2252 102.364 74.9132 101.519 75.3997 101.909V101.909Z" fill="white"/>
<path d="M71.6032 99.8094L72.7237 100.34C72.5337 100.15 71.5975 99.5796 71.9748 99.7413C70.8543 99.1527 71.0415 99.3442 71.6032 99.8094Z" fill="white"/>
<path d="M70.4805 99.4065L71.0478 99.6973C70.9727 99.6136 70.8322 99.5171 70.4805 99.4065Z" fill="white"/>
<path d="M72.2745 100.3L71.0547 99.6973C71.1838 99.8306 71.1483 99.927 71.6093 99.9809C71.4674 100.005 71.744 100.065 72.2745 100.3Z" fill="white"/>
<path d="M72.915 100.726C73.4824 101.13 74.2398 101.614 73.1094 101.087C75.1902 102.221 74.9916 101.865 72.915 100.726Z" fill="white"/>
<path d="M77.8887 104.434L78.6574 104.972L79.4106 105.278C79.0348 105.125 77.8858 104.319 77.8887 104.434Z" fill="white"/>
<path d="M65.2128 95.5942C65.1121 95.6056 65.454 95.9715 65.4823 96.0935C65.7462 96.2439 66.01 96.3914 66.2781 96.5346C65.9093 96.2453 65.21 95.7077 65.2128 95.5942Z" fill="white"/>
<path d="M65.4833 96.0929C65.0904 95.8674 64.6904 95.6489 64.3018 95.4177C65.2918 96.1213 65.5074 96.1936 65.4833 96.0929Z" fill="white"/>
<path d="M70.1147 99.5883L72.1685 100.527C71.3572 100.149 70.5478 99.7627 69.7402 99.3684L70.1147 99.5883Z" fill="white"/>
<path d="M61.0776 92.539L61.7712 92.8865C61.3698 92.6695 60.9613 92.461 60.5684 92.2241C60.7386 92.3291 60.9031 92.434 61.0776 92.539Z" fill="white"/>
<path d="M58.4687 90.3588C58.9722 90.6425 58.0361 89.6879 58.5311 90.0255C57.8502 89.4142 57.1893 88.9702 56.6318 88.5305C56.9155 88.7802 57.1992 89.044 57.5013 89.3376C57.8034 89.6312 58.1127 89.9759 58.4687 90.3588Z" fill="white"/>
<path d="M55.7021 87.7854C55.9858 88.0336 56.3007 88.2705 56.6383 88.5301C56.3376 88.2662 56.0284 88.0209 55.7021 87.7854Z" fill="white"/>
<path d="M62.4555 94.0368C62.3988 93.9389 62.2882 93.7531 61.7236 93.2439L62.0286 93.7176L62.4555 94.0368Z" fill="white"/>
<path d="M62.0361 93.7331L62.0248 93.7175L61.127 93.0083L62.0361 93.7331Z" fill="white"/>
<path d="M62.5615 94.1172L62.4551 94.0364C62.4648 94.0576 62.4796 94.076 62.4982 94.0901C62.5167 94.1042 62.5385 94.1135 62.5615 94.1172Z" fill="white"/>
<path d="M67.1644 97.5614C66.4368 97.2153 64.9772 96.3856 66.2439 97.4068C66.7956 97.6153 66.068 97.0352 67.1644 97.5614Z" fill="white"/>
<path d="M62.9521 94.7026L64.1025 95.5778C64.1025 95.5211 63.9365 95.3125 64.2883 95.4984L62.9521 94.7026Z" fill="white"/>
<path d="M62.3525 94.3245L62.9539 94.6989L62.5341 94.367L62.3525 94.3245Z" fill="white"/>
<path d="M57.3121 89.6253C56.8 89.2679 56.3192 88.7856 55.7773 88.2551L56.6284 89.1629C56.9121 89.4622 57.2199 89.743 57.5121 90.0139C57.6269 90.0551 57.9546 90.221 57.3121 89.6253Z" fill="white"/>
<path d="M59.5388 91.6964L59.4268 91.6169C59.4778 91.6836 59.5303 91.7247 59.5388 91.6964Z" fill="white"/>
<path d="M51.0469 82.4663L51.0836 82.5851C51.0978 82.5838 51.112 82.5838 51.1261 82.5851L51.0469 82.4663Z" fill="white"/>
<path d="M57.5799 90.1403C57.8826 90.472 58.2313 90.7586 58.6153 90.9913C58.2551 90.7077 57.882 90.3871 57.5033 90.024C57.448 90.0041 57.4296 90.0112 57.5799 90.1403Z" fill="white"/>
<path d="M54.2295 86.303C54.4245 86.5997 54.6347 86.8861 54.8593 87.1611C54.7742 87.0193 54.6422 86.8278 54.516 86.6562C54.4394 86.5243 54.3428 86.4051 54.2295 86.303V86.303Z" fill="white"/>
<path d="M59.302 91.4407L59.3755 91.4959C59.2511 91.3332 59.2567 91.3643 59.302 91.4407Z" fill="white"/>
<path d="M59.3032 91.4409C59.0478 91.2508 58.8308 91.1203 58.6152 90.9856C58.9074 91.2225 59.1826 91.4395 59.4266 91.6154C59.3799 91.5613 59.3386 91.5029 59.3032 91.4409V91.4409Z" fill="white"/>
<path d="M48.8218 81.1516C48.9253 81.1516 49.2189 81.4948 49.5622 81.9927C49.9732 82.554 50.3434 83.1442 50.67 83.7586C51.6004 84.8181 51.4955 83.7401 51.0856 82.5856C51.0019 82.5856 50.9437 82.6352 50.0927 81.5033C50.1806 81.7402 50.5721 82.421 50.8345 82.9402C51.0969 83.4593 51.2742 83.7827 50.8544 83.3401C49.7352 81.8125 50.0359 82.021 49.6473 81.187C49.7537 81.5771 49.3821 81.1033 48.9721 80.5884C48.5622 80.0736 48.1665 79.4906 48.1211 79.7487C48.4119 80.2296 48.7083 80.7033 49.0345 81.1601C49.0005 81.2125 48.6232 80.7274 48.8218 81.1516Z" fill="white"/>
<path d="M52.6488 84.7584L53.0233 85.2009C52.6301 84.6564 52.2864 84.0777 51.9963 83.4719C51.3637 82.7499 51.2049 82.6209 51.124 82.5911C51.6559 83.374 52.1978 84.1513 52.7906 84.8988L52.6488 84.7584Z" fill="white"/>
<path d="M54.7241 87.1756C54.266 86.9813 53.3057 85.9516 53.71 86.7416C54.8617 88.0182 54.6362 87.5302 55.3865 88.2295C53.4745 86.2338 55.9993 88.7402 54.7241 87.2054C55.1184 87.5771 55.4418 87.9387 55.7766 88.2551C55.439 87.8905 55.1482 87.5104 54.866 87.1615L54.9 87.2154L54.9085 87.2239C54.9709 87.3274 54.9865 87.3657 54.9085 87.2579L54.8674 87.2182C54.8173 87.2151 54.7686 87.2 54.7255 87.1742C54.2135 86.5643 54.6759 87.0508 54.8674 87.2182C54.8801 87.2182 54.9014 87.2281 54.9114 87.2182V87.2097C54.5823 86.8891 54.2674 86.5558 53.9596 86.2168C53.6518 85.8778 53.3284 85.5487 53.0391 85.1956C53.2408 85.4758 53.4572 85.7452 53.6873 86.0026C53.9468 86.3204 54.2688 86.7133 54.7241 87.1756Z" fill="white"/>
<path d="M64.7704 96.9103C64.708 96.8479 64.7193 96.8394 64.7207 96.8238C64.5576 96.7401 64.4924 96.7146 64.7704 96.9103Z" fill="white"/>
<path d="M63.8855 96.1629C64.2058 96.3 64.5086 96.4748 64.7876 96.6835C65.2315 97.0551 64.7351 96.7573 64.7252 96.8253C65.084 97.0111 65.9578 97.5033 64.972 96.7218L64.7933 96.631C63.8897 95.9488 62.86 94.9034 63.0316 95.0027C63.2004 95.3275 63.3663 95.5927 63.8855 96.1629Z" fill="white"/>
<path d="M58.9385 91.8894C58.3413 91.3972 57.7257 90.922 57.1484 90.4043C57.3981 90.7163 57.6491 91.0256 57.9144 91.3248L57.9342 91.2128C58.903 92.1177 58.7697 91.8383 58.9385 91.8894Z" fill="white"/>
<path d="M50.9801 82.1975L51.3092 82.3394L50.3574 81.3933L50.9801 82.1975Z" fill="white"/>
<path d="M49.4331 79.6824L49.6346 79.6966L49.1807 79.0583L49.4331 79.6824Z" fill="white"/>
<path d="M48.6023 30.0928L47.9824 30.3765C48.2789 30.2516 48.4675 30.1651 48.6023 30.0928Z" fill="white"/>
<path d="M53.2666 28.464L53.356 28.3477C53.1517 28.464 53.0723 28.5207 53.2666 28.464Z" fill="white"/>
<path d="M90.6113 35.3457C91.6212 35.3003 92.7574 35.3202 92.5971 35.1542L92.2609 35.0322C91.7191 35.1753 91.1679 35.28 90.6113 35.3457Z" fill="white"/>
<path d="M93.2158 22.1998C93.3094 22.2225 93.4073 22.2509 93.4995 22.2807L94.1888 22.1729C93.8995 22.1828 93.5662 22.1814 93.2158 22.1998Z" fill="white"/>
<path d="M92.4535 22.9321L91.1543 22.7292C91.4465 22.7902 91.8649 22.8555 92.4535 22.9321Z" fill="white"/>
<path d="M25.5883 43.5386L25.1543 44.2194C26.0337 43.3755 25.577 43.6747 25.5883 43.5386Z" fill="white"/>
<path d="M51.6289 52.2151C52.2502 51.6562 52.7892 51.2562 53.2218 50.8647L52.1353 51.6392C51.8558 51.8676 51.6672 52.0647 51.6289 52.2151Z" fill="white"/>
<path d="M49.7618 27.5403C49.3703 27.7105 49.2115 27.8055 49.237 27.841C49.6398 27.6679 49.8625 27.5545 49.7618 27.5403Z" fill="white"/>
<path d="M55.0902 49.3215C54.9554 49.391 54.8419 49.4818 54.7143 49.5627C54.2646 49.9882 53.7753 50.3669 53.2207 50.8648C53.5157 50.6378 53.8519 50.4151 54.1724 50.1556C54.4985 49.9006 54.8053 49.6218 55.0902 49.3215V49.3215Z" fill="white"/>
<path d="M59.7031 120.03L59.8748 120.172C59.9045 120.157 59.8251 120.104 59.7031 120.03Z" fill="white"/>
<path d="M86.4801 122.681C86.239 122.842 85.839 123.094 85.4561 123.324C85.8089 123.129 86.1507 122.914 86.4801 122.681V122.681Z" fill="white"/>
<path d="M45.8115 68.5012C45.8924 69.1083 45.8427 68.5948 45.8115 68.5012V68.5012Z" fill="white"/>
<path d="M45.6282 71.6273C45.5757 71.4997 45.526 71.4061 45.4863 71.4004C45.5523 71.4626 45.6012 71.5408 45.6282 71.6273V71.6273Z" fill="white"/>
<path d="M59.7609 44.8592L59.8105 44.8308C59.619 44.8975 59.6517 44.8861 59.7609 44.8592Z" fill="white"/>
<path d="M45.8528 69.4303C45.8272 69.1991 45.8145 68.9324 45.7989 68.6431C45.7977 68.9064 45.8158 69.1695 45.8528 69.4303Z" fill="white"/>
<path d="M45.915 69.2922C45.9462 69.5036 45.9704 69.6681 45.993 69.8256C46.037 69.8965 46.0455 69.8256 45.915 69.2922Z" fill="white"/>
<path d="M45.7041 67.6545C45.7467 68.002 45.775 68.3283 45.7963 68.6474C45.7963 68.5254 45.7963 68.4744 45.8105 68.5056C45.7878 68.3212 45.7566 68.0716 45.7041 67.6545Z" fill="white"/>
<path d="M22.3418 83.4209C22.3602 83.4592 22.3815 83.5032 22.4028 83.5443C22.8283 84.0393 22.6595 83.811 22.3418 83.4209Z" fill="white"/>
<path d="M106.897 30.7625L106.824 30.7795H106.921L106.897 30.7625Z" fill="white"/>
<path d="M109.204 30.3882C108.469 30.642 107.696 30.7733 106.918 30.7768L107.742 31.2336L109.204 30.3882Z" fill="white"/>
<path d="M92.5561 22.8474C92.4785 22.8313 92.41 22.7862 92.3646 22.7212C92.1788 22.7453 92.1731 22.7907 92.5561 22.8474Z" fill="white"/>
<path d="M25.6714 43.4126L25.6177 43.4607C25.6027 43.4841 25.5935 43.5108 25.5908 43.5385L25.6714 43.4126Z" fill="white"/>
<path d="M67.2793 40.2852C67.5564 40.1871 67.841 40.1117 68.1303 40.0596C68.1303 40.0029 67.9261 40.0398 67.2793 40.2852Z" fill="white"/>
<path d="M47.4058 74.7037C47.2427 74.2782 47.0654 73.8697 46.9307 73.4399C47.1151 74.0669 47.1746 74.291 47.2455 74.6172C47.2782 74.5747 47.264 74.308 47.4058 74.7037Z" fill="white"/>
<path d="M52.1137 85.6864C52.2555 85.8282 52.3832 86.0268 52.5307 86.1672L52.5704 86.0623C52.0271 85.3843 51.5874 84.9531 52.1137 85.6864Z" fill="white"/>
<path d="M47.1952 76.1304C47.1328 76.2126 47.1952 76.4495 47.3286 76.7757C47.3952 76.9389 47.4704 77.1247 47.5654 77.3232L47.8846 77.9431L47.8122 77.7885C47.9839 77.8665 47.9427 77.6807 47.7952 77.363C47.6477 77.0452 47.4293 76.5871 47.1952 76.1304Z" fill="white"/>
<path d="M47.9873 78.1448C48.1164 78.4129 48.2497 78.6852 48.3774 78.9476C48.5093 79.0057 48.227 78.6185 47.9873 78.1448Z" fill="white"/>
<path d="M45.5207 66.5014C45.4952 66.9454 45.7576 66.7709 45.6966 67.022C45.8242 67.2602 45.7079 66.5369 45.6285 66.0432C45.5774 65.5511 45.4555 65.2915 45.5207 66.5014Z" fill="white"/>
<path d="M46.954 77.0781L47.0221 76.6711L46.6533 76.2285L46.954 77.0781Z" fill="white"/>
<path d="M44.9385 69.6386C45.0193 70.1506 45.0633 70.6712 45.1768 71.1804C45.2066 71.1492 45.2732 71.3378 45.3456 71.5704L45.1881 70.874C45.1498 70.6442 45.1129 70.4272 45.0803 70.2414C45.0179 69.8627 44.9668 69.6145 44.9385 69.6386Z" fill="white"/>
<path d="M45.3428 71.5703C45.4591 72.0568 45.5598 72.5235 45.6818 72.7788C45.5924 72.5235 45.4676 71.9533 45.3428 71.5703Z" fill="white"/>
<path d="M46.1262 75.1011L46.0155 74.6486C45.8907 74.3011 45.7985 73.9394 45.6992 73.5876C45.7645 73.8415 45.8226 74.0969 45.895 74.3493L46.1262 75.1011Z" fill="white"/>
<path d="M48.9831 53.9582C49.1398 53.7227 49.3098 53.4964 49.4923 53.2802L50.0242 52.615C50.0824 52.4335 49.7405 52.7569 49.3505 53.2576C49.115 53.5895 48.7788 54.127 48.9831 53.9582Z" fill="white"/>
<path d="M45.79 58.0828C45.9144 57.8527 46.0706 57.6412 46.2539 57.4545L46.0368 57.2871L45.79 58.0828Z" fill="white"/>
<path d="M48.3533 53.7109C48.3674 53.5081 49.8029 51.6174 48.3901 53.3336C48.3391 53.5166 47.3405 54.9506 48.3533 53.7109Z" fill="white"/>
<path d="M70.019 39.9824L69.6162 40.147L69.8346 40.5356L70.019 39.9824Z" fill="white"/>
<path d="M91.6854 32.8252C89.6656 33.1344 91.2599 33.1897 89.4344 33.4337C88.9876 33.6323 90.9308 33.2337 90.4684 33.4223C91.65 33.0649 92.2968 33.0025 91.6854 32.8252Z" fill="white"/>
<path d="M90.4676 33.4285C90.279 33.4852 90.079 33.5476 89.8662 33.62C90.2095 33.5164 90.3697 33.4611 90.4676 33.4285Z" fill="white"/>
<path d="M90.5918 120.054C90.9563 119.801 91.3322 119.559 91.6868 119.293C91.4386 119.435 91.1833 119.576 90.9265 119.718L90.5918 120.054Z" fill="white"/>
<path d="M92.3477 118.188L92.7732 118.201L92.8015 118.155L92.871 118.069C92.912 118.014 92.9494 117.957 92.9831 117.898C93.0407 117.793 93.0882 117.682 93.1249 117.568C93.1922 117.364 93.228 117.15 93.2313 116.935C93.1747 117.237 93.0473 117.522 92.8597 117.765C92.8006 117.841 92.7341 117.91 92.6611 117.972C92.6072 118.018 92.5803 118.037 92.5391 118.067C92.4794 118.113 92.4152 118.154 92.3477 118.188V118.188Z" fill="white"/>
<path d="M63.9306 26.062L64.0129 25.9755C63.8015 25.9414 63.5051 26.001 62.915 26.1343C63.254 26.1102 63.5874 26.0733 63.9306 26.062Z" fill="white"/>
<path d="M47.1848 30.9281L47.4671 30.8259L46.8486 30.7891L47.1848 30.9281Z" fill="white"/>
<path d="M34.2578 37.6438C34.767 37.3416 35.3244 36.9204 35.8563 36.6509C35.2989 36.9771 34.8337 37.1927 34.533 37.3331C34.2323 37.4736 34.106 37.5501 34.2578 37.6438Z" fill="white"/>
<path d="M109.853 28.7063C109.782 28.8553 109.666 28.978 109.521 29.0567C109.376 29.1355 109.21 29.1662 109.046 29.1445C104.959 28.6026 100.84 28.3372 96.7173 28.3502C96.5754 28.3502 96.4223 28.3502 96.2747 28.3502C87.814 28.3814 80.2199 29.4438 73.7108 31.4707C70.8134 32.3548 68.0065 33.5123 65.3281 34.9274C63.3984 35.9493 61.5625 37.1392 59.8417 38.4833C59.4346 38.8039 59.0403 39.1301 58.6545 39.4677C56.5122 41.2966 54.6377 43.4175 53.0858 45.7682C49.9724 50.5028 48.3625 56.0332 48.3625 62.1252C48.3625 62.5635 48.371 62.9933 48.3852 63.4231C48.4968 66.9606 49.0793 70.2532 50.1327 73.3008C50.7891 75.2154 51.6449 77.0557 52.6858 78.7915C54.1402 81.1966 55.9047 83.3998 57.9339 85.3445C58.836 86.2201 59.8029 87.0712 60.8346 87.8976C64.4174 90.75 68.5804 93.1188 72.8995 95.1783C75.8228 96.5797 78.8199 97.8364 81.7687 99.008C83.4708 99.6931 85.1602 100.348 86.8069 100.985C87.2069 101.141 85.9998 102.489 86.3984 102.64C90.3699 104.179 93.8748 105.771 97.2407 107.411C99.7087 108.616 103.842 108.618 105.716 110.032C105.812 110.104 105.89 110.197 105.944 110.305C105.998 110.413 106.026 110.531 106.026 110.652C106.026 110.772 105.998 110.891 105.944 110.998C105.89 111.106 105.812 111.199 105.716 111.271C97.4957 117.34 87.7239 120.954 77.5335 121.694C67.3432 122.434 57.1518 120.27 48.1413 115.453C35.9777 108.888 26.7758 97.9306 22.4114 84.8154C21.5572 82.2248 20.9065 79.5714 20.4654 76.8795C19.1568 69.2062 19.5278 61.3403 21.553 53.8243C23.5782 46.3082 27.2093 39.3208 32.196 33.3437C37.1827 27.3667 43.4064 22.5422 50.4379 19.203C57.4694 15.8638 65.1414 14.0892 72.925 14.0017C73.169 13.9932 73.4073 13.9932 73.6498 13.9932C74.9164 13.9932 76.1831 14.0371 77.4355 14.1279C89.4042 14.9615 100.751 19.7729 109.67 27.7971C109.794 27.9091 109.878 28.0579 109.911 28.2215C109.944 28.3852 109.924 28.5551 109.853 28.7063Z" fill="#FFBCC9"/>
<path d="M104.307 49.1187C104.278 49.3442 104.246 49.574 104.217 49.808C104.204 49.9087 104.19 50.008 104.173 50.1073C103.566 54.3965 102.282 58.8106 100.387 63.2048C98.476 67.5982 96.1084 71.7786 93.3232 75.6768C96.2154 76.8952 99.3642 78.0697 102.625 79.2895C103.947 79.7831 105.283 80.2824 106.619 80.7902C109.711 76.059 112.291 71.0129 114.317 65.7367C115.604 62.384 116.613 58.9314 117.335 55.4135C117.586 54.1738 117.022 54.4362 117.194 53.2093C113.804 51.6718 110.136 49.1187 104.307 49.1187Z" fill="#0053A0"/>
<path d="M50.1333 73.3037C49.0751 70.2513 48.4926 66.9587 48.3858 63.4259C48.251 63.6032 48.112 63.7763 47.973 63.9451C44.7547 67.884 41.3689 70.2896 38.3435 70.874C37.5082 71.0468 36.6477 71.0603 35.8074 70.9137C32.3947 70.2839 29.2827 66.667 27.2034 60.9352C27.0998 60.6515 26.9991 60.3678 26.9041 60.0842C25.4772 55.7949 24.7268 50.7128 24.6701 45.2959C20.1401 55.1695 18.6752 66.1746 20.4645 76.8894C21.1318 77.668 21.8446 78.4064 22.5992 79.1007C25.6999 81.9673 29.3083 83.8282 33.3025 84.5601C34.2902 84.743 35.29 84.8535 36.2939 84.8906C36.5421 84.8991 36.7889 84.9034 37.0357 84.9034C38.6219 84.901 40.2027 84.7183 41.7477 84.3587C45.5022 83.5077 49.1971 81.6311 52.6977 78.7943C51.6528 77.059 50.7933 75.2187 50.1333 73.3037V73.3037Z" fill="#F94200"/>
<path d="M87.8636 101.815L86.8707 100.809L83.953 100.838L81.7744 99.7938L78.7021 99.5257L76.0724 101.443L73.0087 101.947L69.8087 101.512L66.8429 102.181L63.8316 102.88L61.0232 102.1L58.2686 101.795L55.1609 102.258L52.9099 99.0151L52.3425 96.2975L53.5624 93.5415L54.2815 90.4763L56.2672 88.058L57.2715 85.3318L55.8999 83.4028L54.6815 80.8028L52.412 78.9589L51.005 76.237L50.3724 72.4697L47.8774 75.0228L46.9469 77.8837L44.8732 79.7716L43.8605 82.4127L41.1797 84.051L40.3755 86.4623L39.9202 88.9686L39.1939 91.3302L38.123 93.6379L38.4209 96.7698L38.5443 99.8037L39.3797 102.71L40.8407 105.317L41.7995 108.021L43.6364 110.216L45.964 111.884L48.6448 112.886L50.5766 115.663L53.8092 115.077L56.6545 116.798L59.7948 117.443L62.9947 116.121L64.1621 117.156L67.0272 117.308L69.8016 116.457L72.6285 116.195L75.5036 116.061L78.3234 115.572L81.0368 114.657L83.3275 112.53L85.9856 111.626L88.5941 110.589L91.1727 109.477L94.2932 109.487L96.6392 107.811L99.2746 106.134L96.1655 105.402L93.6251 103.675L90.5997 103.107L87.8636 101.815ZM126.911 60.3622L126.06 57.897L123.62 56.6701L121.868 54.9539L120.51 52.4348L117.748 52.1809L115.273 50.9398L112.822 49.1951L109.964 48.954L107.108 49.1724L104.306 48.3696L103.141 48.4306L99.1314 49.9909L96.3556 49.093L93.767 49.7895L91.072 49.9199L88.6607 51.2575L86.0182 51.6717L83.8197 53.473L81.1787 53.8532L79.0284 55.5737L78.8241 58.375L78.4837 60.9282L77.7475 63.9806L79.3347 66.5819L81.6269 67.9124L84.0155 67.2996L86.4267 65.6869L89.5699 66.1777L92.1543 65.043L94.7655 63.8515L97.5385 63.2841L100.404 63.443L103.463 62.6373L104.262 62.6558L106.969 62.5849L109.742 62.6473L112.198 64.0657L114.429 65.6259L115.267 66.4415L116.202 69.7847L113.674 72.3378L113.643 75.793L110.986 77.8086L109.405 79.3617L109.141 81.2525L111.079 82.9304L113.632 84.3049L116.497 84.9488L119.04 86.3261L121.858 88.0778L124.014 85.7374L125.351 83.3715L125.481 80.3929L126.616 78.0284L127.512 75.5689L128.176 73.047L129.878 70.6017L129.523 67.8571L129.098 65.1905L127.753 62.8189L126.911 60.3622Z" fill="#FF8257"/>
<path d="M59.8399 38.4808C59.4328 38.8014 59.0385 39.1276 58.6527 39.4652C56.5103 41.295 54.6357 43.4169 53.0841 45.7686C54.7818 43.874 56.5781 42.0701 58.4655 40.3644C60.629 38.4 62.921 36.5818 65.3263 34.922C63.3965 35.9449 61.5607 37.1358 59.8399 38.4808ZM96.273 28.3548C96.4148 28.3548 96.568 28.3548 96.7155 28.3548C100.838 28.3418 104.957 28.6072 109.044 29.1491C109.209 29.1723 109.376 29.1419 109.522 29.0623C109.668 28.9827 109.785 28.8582 109.854 28.7073C109.924 28.5564 109.943 28.387 109.909 28.2244C109.874 28.0618 109.789 27.9146 109.664 27.8045C100.744 19.7814 89.3979 14.9709 77.4295 14.1382C76.2844 14.4332 75.1265 14.7741 73.9559 15.1609C73.6878 15.253 73.4183 15.3438 73.1488 15.4445C68.4941 17.087 64.0444 19.2612 59.8881 21.9238C52.8415 26.3776 46.1665 32.2781 40.3553 39.2879C34.7313 46.065 30.269 53.4506 27.1982 60.9455C25.0295 66.2219 23.56 71.5523 22.8565 76.7649C22.7487 77.555 22.6622 78.3393 22.5927 79.111C22.4159 81.0123 22.3534 82.9225 22.4054 84.8314C26.7698 97.9466 35.9717 108.904 48.1352 115.469C49.6037 115.658 51.0829 115.753 52.5635 115.753C52.9238 115.753 53.2826 115.753 53.6472 115.736C57.8414 115.618 62.2767 114.804 66.8652 113.285C74.1246 110.883 81.333 106.828 87.9994 101.472C87.6009 101.32 87.2278 100.651 86.8279 100.495C85.1797 99.8579 82.8946 98.5785 81.1911 97.8934C78.2408 96.7176 76.4196 95.2907 73.3899 94.424C69.9716 96.5048 66 98.9345 62.5022 100.093C60.1945 100.876 57.8107 101.413 55.3904 101.696C48.3267 102.465 44.124 100.153 42.029 98.4183C40.9014 97.4864 39.4972 95.9772 38.3568 93.6779C37.2802 91.5149 36.4434 88.6426 36.2873 84.8839C36.2082 82.7839 36.3159 80.6812 36.6093 78.6003C36.9715 75.9814 37.5508 73.3972 38.3412 70.8743C40.7312 63.1553 45.0942 55.2974 51.0401 48.1373C51.7021 47.3298 52.3843 46.5421 53.0869 45.7742C54.7846 43.8797 56.5809 42.0758 58.4683 40.3701C60.6318 38.4056 62.9239 36.5875 65.3291 34.9277C65.3291 34.9277 75.2395 28.5151 96.273 28.3548Z" fill="#FFA300"/>
<path d="M80.4609 14.4302C80.4609 14.4302 85.7785 22.4541 93.323 28.4085C93.4563 28.5149 96.7612 27.5958 109.854 28.7064C109.854 28.7064 103.897 18.9946 80.4609 14.4302" fill="#0053A0"/>
<path d="M21.4359 81.1316L21.311 77.692L22.1607 74.9247L22.1337 72.0935L22.7791 69.3461L23.4613 66.6171L23.8713 63.8242L23.911 60.891L25.7918 58.5322L26.2499 55.6968L26.9889 52.9309L29.0101 50.7579L29.942 48.07L30.8484 45.3212L32.9405 43.2914L34.671 41.0645L36.1532 38.6504L38.0439 36.5512L39.8765 34.4066L41.5687 32.1045L43.7246 30.2577L46.2295 28.8379L48.0635 26.621L50.0989 24.6026L52.6265 23.2636L55.296 22.1941L57.6477 20.6339L59.8604 18.9431L59.1611 15.8496L56.1427 16.1177L53.7144 17.8737L51.1826 19.18L48.5628 20.285L46.1104 21.7261L43.1601 22.4154L41.3077 24.7785L38.7801 26.1869L36.8199 28.2975L34.6157 30.1343L32.8994 32.4407L31.1604 34.6988L29.4456 36.971L27.3591 39.0235L26.0145 41.5695L24.2074 43.8971L23.8798 46.9325L22.2103 49.3636L21.1593 52.0699L21.1252 55.0585L20.0472 57.7591L19.2756 60.5647L19.0742 63.4625L19.2061 66.3603L19.1366 69.2482L19.6458 72.0949L20.1111 74.9247L20.2983 77.8281L21.4359 81.1316Z" fill="#FF8257"/>
<path d="M62.1709 120.619C62.1709 120.619 79.1733 115.825 92.3829 103.172C92.3829 103.172 109.67 108.491 105.913 111.31C98.9742 116.518 82.4952 125.19 62.1709 120.619Z" fill="#3A5DA5"/>
<path d="M90.5811 119.462L91.1924 116.975L91.8945 114.381L92.8051 111.853L93.8476 109.375L95.0675 106.977L96.4688 104.621L99.1425 105.533L101.681 106.676L104.338 107.578L106.599 109.256L106.749 111.877L104.271 113.655L101.74 115.31L99.0801 116.755L96.2845 117.928L93.3796 118.786L90.5811 119.462Z" fill="#F94200"/>
<path d="M73.1529 15.4318C73.0806 14.9552 73.0111 14.4772 72.9232 14.0049C68.2722 14.058 63.6476 14.7126 59.1647 15.9523C59.5208 17.9225 59.7628 19.9116 59.8895 21.9096C60.2355 27.1052 59.9022 32.725 58.8739 38.3191C58.8058 38.6974 58.7325 39.0789 58.654 39.4638C58.593 39.7673 58.532 40.0666 58.4668 40.3659C60.6303 38.4014 62.9223 36.5832 65.3276 34.9235C68.0061 33.5084 70.8129 32.351 73.7104 31.4668C73.7444 31.0115 73.7714 30.5562 73.7969 30.1009C74.0759 25.202 73.8602 20.2874 73.1529 15.4318Z" fill="#F94200"/>
<path d="M82.222 102.751C82.1085 102.725 81.8759 102.647 81.7015 102.588C81.1114 102.388 80.3029 102.115 79.3554 102.105C77.8122 102.095 76.7768 102.965 76.0293 103.748C75.9484 103.698 75.8633 103.65 75.7768 103.606C75.7626 103.544 75.7484 103.481 75.7357 103.42C76.9895 102.908 77.9087 102.076 78.0363 100.518C78.164 98.9607 77.3271 97.809 76.7739 97.053L76.625 96.8473C76.5324 96.3228 76.3256 95.825 76.0193 95.3892C75.1694 94.9944 74.2902 94.6658 73.3896 94.4062C69.9741 96.5041 66.0026 98.9338 62.5048 100.093C61.3048 100.49 60.1616 100.81 59.0723 101.064C60.0964 101.607 61.4495 101.632 62.8168 101.541C62.3034 102.929 62.1729 104.49 63.536 105.766C63.6466 105.891 63.8948 106.246 64.0594 106.484C64.5799 107.233 65.1473 108.044 65.9033 108.671C66.316 109.463 67.0281 110.108 67.7798 110.67C66.7558 110.721 65.821 111.046 65.092 111.953C64.9132 112.176 64.7615 112.289 64.3062 112.616C64.1643 112.718 64.0126 112.826 63.8523 112.945C63.3256 113.332 62.9202 113.862 62.6835 114.471C64.0641 114.136 65.4607 113.735 66.8735 113.268C73.0464 111.226 79.1781 107.989 84.978 103.765C84.2872 103.261 83.3823 102.754 82.222 102.751Z" fill="#0053A0"/>
<path d="M52.5671 115.729C52.9274 115.729 53.2862 115.729 53.6507 115.712C56.5181 115.617 59.369 115.237 62.1612 114.578C61.5484 113.869 60.6137 113.043 59.2095 112.968C57.5074 112.873 56.4365 113.941 55.6152 115.134C55.443 115.007 55.2614 114.894 55.072 114.795C53.9174 114.192 52.7515 114.352 51.7033 114.674C51.5958 114.258 51.4346 113.858 51.2239 113.484C51.2285 112.902 51.192 112.321 51.1146 111.744C51.4338 111.776 51.777 111.816 52.0366 111.846C54.3614 112.12 57.2492 112.459 58.2293 109.751C59.0705 107.423 57.2705 105.94 55.7656 104.918C55.8451 104.527 55.8557 104.124 55.7968 103.728C55.8819 103.428 56.0507 102.951 56.1712 102.611C56.2918 102.27 56.4152 101.92 56.5329 101.541C56.1433 101.601 55.7618 101.648 55.3883 101.683C49.5955 102.313 45.729 100.872 43.3687 99.3767C41.6667 100.492 40.1405 101.904 40.1319 103.975C40.1319 104.928 40.3234 105.998 40.4965 106.941C40.5404 107.184 40.583 107.411 40.6156 107.612C40.8341 108.954 41.6156 109.707 42.6269 110.147C42.5446 110.232 42.4638 110.321 42.3872 110.413C41.9027 109.778 41.2086 109.336 40.4284 109.165C40.2148 109.082 40.0088 108.981 39.8128 108.863C39.3601 108.603 38.8883 108.378 38.4015 108.189C38.1337 108.089 37.8546 108.021 37.5703 107.989C40.7796 110.888 44.3261 113.389 48.1332 115.44C49.6034 115.631 51.0844 115.728 52.5671 115.729V115.729ZM46.2878 104.757C46.841 104.35 47.736 103.833 48.18 103.578C48.5558 103.362 48.8807 103.175 49.1587 102.996C49.4114 102.829 49.6488 102.639 49.8679 102.429C49.813 102.654 49.7695 102.881 49.7374 103.11C49.2503 103.647 48.9266 104.312 48.8041 105.026C48.1516 104.914 47.4608 104.856 46.7786 104.798L46.2878 104.757Z" fill="#0053A0"/>
<path d="M34.5841 101.668C34.6494 101.526 34.8678 101.187 35.0096 100.959C35.5983 100.014 36.2677 98.9459 36.3911 97.6665C36.5911 95.5998 35.1146 94.4325 33.6962 93.6013C34.4891 92.5645 35.16 91.2255 34.5642 89.6156C34.2167 88.678 33.6536 87.7717 33.1572 86.966L32.9302 86.5987C34.9444 86.7065 35.8961 85.6058 36.2975 84.9079C36.2982 84.9013 36.2982 84.8947 36.2975 84.8881C36.2509 83.7335 36.2651 82.5774 36.3401 81.4243C36.1267 80.9601 35.8797 80.5122 35.6011 80.0839C35.5288 79.9676 35.4351 79.8159 35.3628 79.6925C35.3109 79.2055 35.1915 78.7281 35.0082 78.2741C35.4791 78.3067 35.9415 78.3166 36.377 78.3251H36.6606C37.0238 75.8007 37.5873 73.3093 38.3457 70.8743C39.3068 67.8021 40.5169 64.8136 41.9641 61.9383L41.7768 61.8674C41.757 61.7383 41.7385 61.6092 41.7187 61.4816L41.9031 61.3397C42.1031 61.1795 42.3215 61.0036 42.5428 60.8121C43.1602 59.6377 43.8184 58.4694 44.5172 57.3072C44.5159 57.1171 44.4993 56.9274 44.4675 56.7399C44.2136 55.2052 43.1356 54.3555 42.0449 53.8038C42.5314 53.0066 42.869 52.0308 42.6222 50.8634C42.3484 49.5741 41.5485 48.6933 41.0194 48.1103C40.9414 48.0252 40.8364 47.9103 40.7641 47.8266C40.1527 45.9699 38.3188 45.3345 37.0833 44.9076L36.9755 44.8707C36.9755 44.8551 36.9755 44.8395 36.9656 44.8239L36.923 44.6267C37.1259 44.4664 37.3344 44.3062 37.4989 44.1785C39.1528 42.9019 41.1995 41.3275 40.6194 38.9673C40.5329 39.0708 40.4449 39.173 40.3584 39.2779C37.6352 42.5556 35.1526 46.0261 32.9302 49.662C33.6394 50.1429 34.4522 50.4237 35.0947 50.6464C35.194 50.679 35.3103 50.7202 35.4252 50.7613C35.6027 51.0691 35.8058 51.3614 36.0323 51.635C35.2763 52.5442 34.4295 53.8066 34.7401 55.4562C34.9713 56.6746 35.7231 57.4519 36.5755 57.9909C35.8663 58.798 35.3359 59.8178 35.5231 61.1199C35.5699 61.4518 35.6195 61.7809 35.6649 62.1128C35.76 62.7468 35.8507 63.3454 35.9245 63.9567C36.1018 65.4318 37.0592 66.2999 38.1315 66.8914C37.4828 66.9459 36.8504 67.123 36.2677 67.4133C35.2848 67.9254 34.8125 68.6899 34.6011 69.6147C34.5813 69.5934 34.5614 69.5722 34.5401 69.5523C34.5983 67.9609 34.326 66.4318 32.7685 65.5368C32.3724 65.305 31.9334 65.1558 31.4781 65.098C31.0228 65.0403 30.5605 65.0752 30.119 65.2006C29.5176 64.656 28.7715 64.3737 28.0566 64.2148C28.2146 63.4036 28.1051 62.5629 27.7446 61.8192C27.6556 61.5719 27.5854 61.3182 27.5346 61.0603C27.4935 60.883 27.4467 60.6901 27.3928 60.493C27.3318 60.6419 27.2694 60.7894 27.2084 60.9383C25.6192 64.7735 24.3912 68.7485 23.5404 72.8118C23.9496 72.8686 24.363 72.8899 24.7759 72.8756C25.2666 73.5096 25.9361 73.8685 26.6779 74.0869C26.3913 74.7637 26.3364 75.5162 26.5219 76.2273C26.8978 77.7266 28.0297 78.5436 28.7062 79.0315L28.7247 79.0457C28.7942 79.2499 28.8665 79.44 28.9474 79.613C28.6218 79.608 28.2968 79.6404 27.9786 79.7095C27.5826 79.6388 27.1787 79.624 26.7786 79.6655C26.2246 79.7125 25.6897 79.8909 25.2184 80.1861C25.5021 78.8301 25.3999 77.4783 24.1801 76.4316C23.8339 76.1346 23.4364 75.9034 23.0071 75.7493C22.956 76.084 22.9064 76.4202 22.8653 76.755C22.7575 77.545 22.6709 78.3294 22.6014 79.101C22.4247 81.0023 22.3622 82.9126 22.4142 84.8214C22.8946 86.2795 23.4369 87.7149 24.0411 89.1277C24.8575 89.1954 25.67 88.9584 26.3219 88.4624C26.5545 88.3816 26.7843 88.2979 27.0127 88.2142C27.1341 88.6195 27.3012 89.0097 27.5105 89.3773C27.6524 89.6199 27.8169 89.8879 27.99 90.1674L28.2736 90.6198C27.468 91.5205 26.5333 92.6056 26.4524 94.051C27.1531 95.3133 27.9063 96.5478 28.7119 97.7544C28.9843 97.9232 29.2679 98.0863 29.5516 98.2494C29.4963 98.3402 29.4424 98.4338 29.3885 98.5331L29.2594 98.5671C30.451 100.284 31.7406 101.93 33.1217 103.498C33.7951 103.063 34.3084 102.42 34.5841 101.668V101.668Z" fill="#0053A0"/>
<defs>
<filter id="filter0_d_3144_24256" x="0.792816" y="0.398403" width="140.61" height="140.61" filterUnits="userSpaceOnUse" color-interpolation-filters="sRGB">
<feFlood flood-opacity="0" result="BackgroundImageFix"/>
<feColorMatrix in="SourceAlpha" type="matrix" values="0 0 0 0 0 0 0 0 0 0 0 0 0 0 0 0 0 0 127 0" result="hardAlpha"/>
<feOffset dx="-2.40239" dy="3.20319"/>
<feGaussianBlur stdDeviation="2.40239"/>
<feComposite in2="hardAlpha" operator="out"/>
<feColorMatrix type="matrix" values="0 0 0 0 0 0 0 0 0 0 0 0 0 0 0 0 0 0 0.25 0"/>
<feBlend mode="normal" in2="BackgroundImageFix" result="effect1_dropShadow_3144_24256"/>
<feBlend mode="normal" in="SourceGraphic" in2="effect1_dropShadow_3144_24256" result="shape"/>
</filter>
</defs>
</svg>
