<svg width="224" height="224" viewBox="0 0 224 224" fill="none" xmlns="http://www.w3.org/2000/svg">
<g filter="url(#filter0_d_1_12435)">
<circle cx="111.766" cy="107.765" r="107.766" fill="white"/>
<circle cx="111.766" cy="107.765" r="97.3786" fill="url(#paint0_linear_1_12435)"/>
<circle cx="111.766" cy="107.765" r="97.3786" fill="url(#paint1_linear_1_12435)"/>
<g style="mix-blend-mode:overlay">
<circle cx="111.766" cy="107.765" r="97.3786" fill="url(#paint2_linear_1_12435)"/>
</g>
<g style="mix-blend-mode:hue">
<circle cx="111.766" cy="107.765" r="97.3786" fill="url(#paint3_linear_1_12435)"/>
</g>
<g style="mix-blend-mode:hue">
<circle cx="111.766" cy="107.765" r="97.3786" fill="url(#paint4_linear_1_12435)"/>
</g>
<path d="M154.996 164.716C148.653 159.963 139.299 156.346 129.401 152.531C117.618 147.99 104.257 142.829 94.2256 134.895C82.8544 125.892 77.3347 114.54 77.3347 100.177C77.3347 87.2933 82.7085 76.2839 92.8722 68.3238C104.27 59.4001 121.546 54.6743 142.815 54.6743C148.693 54.6743 154.306 55.0307 159.507 55.7435C159.971 55.8095 160.409 55.5587 160.595 55.1495C160.794 54.7271 160.688 54.2387 160.343 53.935C146.942 41.9356 129.626 35.3352 111.568 35.3352C92.0628 35.3352 73.7257 42.886 59.9263 56.6148C46.1403 70.3303 38.5507 88.5737 38.5507 107.979C38.5507 127.384 46.1403 145.627 59.9396 159.343C73.7257 173.058 92.0628 180.622 111.581 180.622C127.344 180.622 142.351 175.699 154.996 166.392C155.261 166.194 155.42 165.89 155.42 165.56C155.42 165.23 155.261 164.914 154.996 164.716Z" fill="white"/>
<path d="M184.805 101.033C184.779 100.76 184.646 100.501 184.434 100.332C169.199 87.9583 156.871 82.9075 141.888 82.9075C133.899 82.9075 127.768 84.4786 123.681 87.5687C120.137 90.2434 118.266 93.9828 118.266 98.3583C118.266 110.628 133.594 116.224 151.35 122.703C160.494 126.04 169.956 129.494 178.635 134.207C178.794 134.298 178.966 134.337 179.139 134.337C179.258 134.337 179.378 134.311 179.497 134.272C179.776 134.168 180.015 133.96 180.121 133.674C183.439 125.365 185.124 116.601 185.124 107.629C185.111 105.538 185.005 103.318 184.805 101.033Z" fill="white"/>
</g>
<defs>
<filter id="filter0_d_1_12435" x="0" y="-0.000244141" width="223.531" height="223.531" filterUnits="userSpaceOnUse" color-interpolation-filters="sRGB">
<feFlood flood-opacity="0" result="BackgroundImageFix"/>
<feColorMatrix in="SourceAlpha" type="matrix" values="0 0 0 0 0 0 0 0 0 0 0 0 0 0 0 0 0 0 127 0" result="hardAlpha"/>
<feOffset dy="4"/>
<feGaussianBlur stdDeviation="2"/>
<feComposite in2="hardAlpha" operator="out"/>
<feColorMatrix type="matrix" values="0 0 0 0 0 0 0 0 0 0 0 0 0 0 0 0 0 0 0.25 0"/>
<feBlend mode="normal" in2="BackgroundImageFix" result="effect1_dropShadow_1_12435"/>
<feBlend mode="normal" in="SourceGraphic" in2="effect1_dropShadow_1_12435" result="shape"/>
</filter>
<linearGradient id="paint0_linear_1_12435" x1="111.766" y1="10.3868" x2="111.766" y2="205.144" gradientUnits="userSpaceOnUse">
<stop stop-color="#5869FD"/>
<stop offset="0.458333" stop-color="#94EAF9"/>
<stop offset="1" stop-color="#B4B1E0"/>
</linearGradient>
<linearGradient id="paint1_linear_1_12435" x1="28.3447" y1="57.4531" x2="187.721" y2="144.445" gradientUnits="userSpaceOnUse">
<stop stop-color="#E74C76"/>
<stop offset="1" stop-color="#FADDA4"/>
</linearGradient>
<linearGradient id="paint2_linear_1_12435" x1="111.766" y1="10.3868" x2="111.766" y2="205.144" gradientUnits="userSpaceOnUse">
<stop stop-color="#5869FD"/>
<stop offset="0.458333" stop-color="#94EAF9"/>
<stop offset="1" stop-color="#B4B1E0"/>
</linearGradient>
<linearGradient id="paint3_linear_1_12435" x1="111.766" y1="21.0984" x2="209.144" y2="136.979" gradientUnits="userSpaceOnUse">
<stop stop-color="#5869FD"/>
<stop offset="0.458333" stop-color="#94EAF9"/>
<stop offset="1" stop-color="#F8D99E"/>
</linearGradient>
<linearGradient id="paint4_linear_1_12435" x1="-251.781" y1="236.954" x2="1025.5" y2="227.541" gradientUnits="userSpaceOnUse">
<stop stop-color="#E68692"/>
<stop offset="0.458333" stop-color="#94EAF9"/>
<stop offset="1" stop-color="#F8D99E"/>
</linearGradient>
</defs>
</svg>
